<?xml version="1.0" encoding="utf-8"?>
<!-- Generator: Adobe Illustrator 20.1.0, SVG Export Plug-In . SVG Version: 6.00 Build 0)  -->
<svg version="1.1" xmlns="http://www.w3.org/2000/svg" xmlns:xlink="http://www.w3.org/1999/xlink" x="0px" y="0px"
	 viewBox="0 0 212.6 472.9" style="enable-background:new 0 0 212.6 472.9;" xml:space="preserve">
<style type="text/css">
	.st0{fill:#F3AF1C;}
	.st1{fill:#478ECC;}
	.st2{fill:#9B8931;stroke:#6B603E;stroke-width:3;stroke-miterlimit:10;}
	.st3{fill:none;stroke:#486ACC;stroke-miterlimit:10;}
	.st4{fill:#478ECC;stroke:#486ACC;stroke-miterlimit:10;}
	.st5{fill:none;stroke:#FFFFFF;stroke-miterlimit:10;}
	.st6{fill:#FFFFFF;}
</style>
<g id="Layer_1">
	<title>baseperson</title>
	<circle class="st0" cx="106.3" cy="45.2" r="45.2"/>
	<path class="st0" d="M210.2,161.7c-0.3-16.9-9-32.6-23.2-41.8c-1.5-1-3.1-2-4.7-3c-2.8-1.7-5.5-3.3-8.2-4.7
		c-12.4-6.7-26.4-10.3-40.5-10.3H79.1c-14.2,0-28.1,3.5-40.5,10.3c-2.7,1.5-5.4,3-8.2,4.7c-1.6,1-3.2,2-4.7,3
		c-14.2,9.2-22.9,24.9-23.2,41.8L0,282.3c0,6.1,5.4,11.1,12,11.1h11c6.6,0,12-5,12-11.1v-110c0-3.8,3-5.8,6.8-5.8s6.8,2,6.8,5.8
		v102.6c0,0.7,0.4,186.9,0.4,186.9c0,6.1,5.4,11.1,12,11.1h21c6.6,0,12-5,12-11.1v-169c0-3.8,3-6.8,6.8-6.8h11c3.8,0,6.8,3,6.8,6.8
		v169c0,6.1,5.4,11.1,12,11.1h21c6.6,0,12-5,12-11.1c0,0,0.4-186.2,0.4-186.9V172.3c0-3.8,3-5.8,6.8-5.8s6.8,2,6.8,5.8v109.9
		c0,6.1,5.4,11.1,12,11.1h11c6.6,0,12-5,12-11.1L210.2,161.7z"/>
	<g id="Layer_2">
	</g>
</g>
<g id="Layer_2_1_">
	<path class="st1" d="M39.7,249.9h130v85l-54.5-0.1c0,0,0-17.5-9-16.9c-7.6,0.5-7.5,17-7.5,17h-59C39.7,334.9,39.7,249.9,39.7,249.9
		z"/>
	<circle class="st2" cx="107.4" cy="259.1" r="4.9"/>
	<line class="st3" x1="39.7" y1="267.5" x2="169.7" y2="267.5"/>
	<line class="st3" x1="39.7" y1="249.9" x2="169.7" y2="249.9"/>
	<rect x="46" y="249.9" class="st4" width="5.8" height="20.4"/>
	<rect x="76.8" y="249.9" class="st4" width="5.8" height="20.4"/>
	<rect x="128.5" y="249.9" class="st4" width="5.8" height="20.4"/>
	<rect x="159.2" y="249.9" class="st4" width="5.8" height="20.4"/>
	<line class="st5" x1="115.2" y1="334.8" x2="169.7" y2="334.8"/>
	<line class="st5" x1="39.7" y1="334.9" x2="98.7" y2="334.9"/>
	<path class="st5" d="M43.3,335c-0.3,0.5,0,1.2,0.3,1.7s0.8,1,0.9,1.6c0.1,0.6-0.2,1.3-0.8,1.4"/>
	<g>
		<g>
			<path class="st6" d="M49.9,334.8c-0.5,0.4-1,0.9-1,1.6c0,0.3,0.1,0.5,0.3,0.7c0.3,0.3,0.8,0.6,0.3,1c-0.5,0.4,0.2,1.1,0.7,0.7
				c0.4-0.4,0.6-1,0.4-1.5c-0.1-0.3-0.3-0.4-0.4-0.6c-0.4-0.5,0-0.9,0.4-1.2C51.1,335.1,50.4,334.4,49.9,334.8L49.9,334.8z"/>
		</g>
	</g>
	<g>
		<g>
			<path class="st6" d="M52.4,334.6c-0.4,0.4-0.6,0.9-0.7,1.5c-0.1,0.6,0.8,0.9,1,0.3c0.1-0.4,0.2-0.7,0.5-1
				C53.5,334.8,52.8,334.1,52.4,334.6L52.4,334.6z"/>
		</g>
	</g>
	<g>
		<g>
			<path class="st6" d="M62.2,335.3c-0.2,0.4-0.3,0.8-0.1,1.2c0.1,0.1,0.3,0.3,0.3,0.4c0.1,0.3-0.4,0.3-0.6,0.3
				c-0.6,0.1-0.6,1.1,0,1c0.6-0.1,1.2-0.2,1.5-0.8c0.1-0.2,0.1-0.5,0-0.8c-0.1-0.3-0.5-0.5-0.4-0.8
				C63.3,335.2,62.5,334.7,62.2,335.3L62.2,335.3z"/>
		</g>
	</g>
	<g>
		<g>
			<path class="st6" d="M64.8,335.4c0.3,0.5-0.4,1.2-0.1,1.8c0.3,0.7,2.2,0.9,1.7,1.8c-0.3,0.6,0.5,1.1,0.9,0.5c0.5-1,0-1.9-1-2.3
				c-0.2-0.1-0.6-0.2-0.7-0.4c-0.1-0.2,0.1-0.5,0.2-0.7c0.1-0.4,0.1-0.8-0.1-1.2C65.4,334.3,64.5,334.8,64.8,335.4L64.8,335.4z"/>
		</g>
	</g>
	<g>
		<g>
			<path class="st6" d="M67.8,335.5c0,0.5,0,0.9,0,1.4c0,0.6,1,0.6,1,0c0-0.5,0-0.9,0-1.4C68.8,334.9,67.8,334.9,67.8,335.5
				L67.8,335.5z"/>
		</g>
	</g>
	<g>
		<g>
			<path class="st6" d="M69.5,335.4c-0.1,1,0,2,0.2,3c0.1,0.6,1.1,0.4,1-0.3c-0.2-0.9-0.2-1.8-0.2-2.7
				C70.5,334.7,69.5,334.7,69.5,335.4L69.5,335.4z"/>
		</g>
	</g>
	<g>
		<g>
			<path class="st6" d="M96.2,335.4c0.1,0.8,0.1,1.6,0.1,2.4c0,0.6,1,0.6,1,0c0.1-0.8,0-1.6-0.1-2.4
				C97.1,334.7,96.1,334.7,96.2,335.4L96.2,335.4z"/>
		</g>
	</g>
	<g>
		<g>
			<path class="st6" d="M93.8,335.7c0.2,1.6,0.4,3.5-0.6,4.8c-0.4,0.5,0.3,1.2,0.7,0.7c1.3-1.6,1.2-3.6,0.9-5.5
				C94.7,335.1,93.7,335.1,93.8,335.7L93.8,335.7z"/>
		</g>
	</g>
	<g>
		<g>
			<path class="st6" d="M91.7,335.3c-0.2,1-0.1,1.9,0.3,2.8c0.3,0.6,1.1,0.1,0.9-0.5c-0.3-0.6-0.4-1.3-0.2-2
				C92.8,334.9,91.8,334.6,91.7,335.3L91.7,335.3z"/>
		</g>
	</g>
	<g>
		<g>
			<path class="st6" d="M88.8,335.2c-0.5,0.7-0.5,1.6,0,2.3c0.4,0.5,1.2,0,0.9-0.5c-0.3-0.4-0.3-0.9,0-1.3
				C90,335.2,89.2,334.7,88.8,335.2L88.8,335.2z"/>
		</g>
	</g>
	<g>
		<g>
			<path class="st6" d="M85.1,335.7c0.2,0.2,0.2,0.5,0.2,0.7c-0.1,0.6,0.8,0.9,1,0.3c0.1-0.5,0-1.1-0.3-1.5
				C85.6,334.7,84.7,335.2,85.1,335.7L85.1,335.7z"/>
		</g>
	</g>
	<g>
		<g>
			<path class="st6" d="M116.4,334.9c-0.6,1-0.2,1.5,0.2,2.5c0.4,1-0.2,2.2-0.1,3.2c0.1,0.6,1.1,0.4,1-0.3c-0.1-0.8,0.3-1.6,0.3-2.4
				c0-0.9-1-1.6-0.5-2.5C117.6,334.9,116.7,334.4,116.4,334.9L116.4,334.9z"/>
		</g>
	</g>
	<g>
		<g>
			<path class="st6" d="M118.4,335.5c-0.2,1.2-0.1,2.5,0.3,3.6c0.2,0.6,1.2,0.3,1-0.3c-0.3-1-0.5-2.1-0.3-3.1
				C119.5,335.1,118.5,334.9,118.4,335.5L118.4,335.5z"/>
		</g>
	</g>
	<g>
		<g>
			<path class="st6" d="M120.5,335.1c0,0.9,0.1,1.7,0.5,2.5c0.2,0.4,0.5,0.7,0.7,1.1c0.5,1.1,0.1,1.9-0.5,2.9
				c-0.3,0.6,0.6,1.1,0.9,0.5c0.5-0.9,1-1.9,0.8-3c-0.3-1.5-1.4-2.4-1.4-4C121.5,334.5,120.5,334.5,120.5,335.1L120.5,335.1z"/>
		</g>
	</g>
	<g>
		<g>
			<path class="st6" d="M123.4,335.6c0.2,0.4,0.3,0.7,0.4,1.1c0.1,0.6,1.1,0.6,1,0c-0.1-0.6-0.2-1.1-0.5-1.6
				C123.9,334.5,123,335.1,123.4,335.6L123.4,335.6z"/>
		</g>
	</g>
	<g>
		<g>
			<path class="st6" d="M125.9,335.1c0.2,1.6,0.4,3.2,0.4,4.9c0,0.6,1,0.6,1,0c-0.1-1.7-0.2-3.4-0.5-5.1
				C126.7,334.2,125.8,334.5,125.9,335.1L125.9,335.1z"/>
		</g>
	</g>
	<g>
		<g>
			<path class="st6" d="M144.1,335c0.1,0.7,0,1.3-0.1,2c-0.1,0.6,0.9,0.9,1,0.3c0.1-0.8,0.2-1.5,0.1-2.3
				C145.1,334.4,144.1,334.4,144.1,335L144.1,335z"/>
		</g>
	</g>
	<g>
		<g>
			<path class="st6" d="M145.9,335.2c0.2,0.8,0,1.6,0.3,2.3c0.3,0.7,1.1,1.4,0.9,2.3c-0.2,0.6,0.8,0.9,1,0.3
				c0.2-0.8-0.1-1.4-0.5-2.1c-0.3-0.5-0.6-0.9-0.6-1.5c0-0.5,0-1-0.1-1.5C146.7,334.3,145.8,334.6,145.9,335.2L145.9,335.2z"/>
		</g>
	</g>
	<g>
		<g>
			<path class="st6" d="M148.1,334.9c0,0.5,0,1.1,0,1.6c0,0.6,1,0.6,1,0c0-0.5,0-1.1,0-1.6C149.1,334.2,148.1,334.2,148.1,334.9
				L148.1,334.9z"/>
		</g>
	</g>
	<g>
		<g>
			<path class="st6" d="M153.3,334.9c-0.1,0.7-0.4,1.6-0.4,2.3c0,0.2,0.1,0.4,0.2,0.6c0.2,0.3,1,0.6,0.4,1.1
				c-0.5,0.4,0.2,1.1,0.7,0.7c0.5-0.4,0.7-1.1,0.3-1.7c-0.2-0.3-0.6-0.5-0.7-0.9c-0.1-0.5,0.2-1.3,0.3-1.8
				C154.4,334.5,153.4,334.2,153.3,334.9L153.3,334.9z"/>
		</g>
	</g>
	<g>
		<g>
			<path class="st6" d="M155.3,335.4c-0.1,0.6-0.2,1.2-0.4,1.7c-0.2,0.6,0.8,0.9,1,0.3c0.2-0.7,0.4-1.3,0.4-2
				C156.3,334.7,155.3,334.7,155.3,335.4L155.3,335.4z"/>
		</g>
	</g>
	<g>
		<g>
			<path class="st6" d="M157.9,335.2c-0.4,0.6-0.5,1.3-0.2,2c0.1,0.3,0.4,0.6,0.6,0.8c0.4,0.4,1.3,0.7,1.1,1.4
				c-0.2,0.6,0.8,0.9,1,0.3c0.2-0.7-0.1-1.3-0.6-1.8c-0.7-0.6-1.7-1.1-1-2.2C159.1,335.1,158.2,334.6,157.9,335.2L157.9,335.2z"/>
		</g>
	</g>
	<g>
		<g>
			<path class="st6" d="M160,335.1c0,0.5,0.1,0.9,0.1,1.4c0.1,0.6,1.1,0.6,1,0c0-0.5-0.1-0.9-0.1-1.4
				C160.9,334.5,159.9,334.5,160,335.1L160,335.1z"/>
		</g>
	</g>
	<g>
		<g>
			<path class="st6" d="M162.8,335.4c-0.4,0.6-0.1,1.3-0.1,2c0.1,0.4-0.1,0.5-0.5,0.6c-0.3,0.1-0.6,0.3-0.8,0.6
				c-0.3,0.6,0.5,1.1,0.9,0.5c0.1-0.3,0.7-0.3,1-0.5c0.2-0.2,0.4-0.4,0.4-0.7c0.1-0.6-0.4-1.5-0.1-2
				C164,335.4,163.1,334.9,162.8,335.4L162.8,335.4z"/>
		</g>
	</g>
	<g>
		<g>
			<path class="st6" d="M40.8,335c-0.2,1.2,0,2.3,0.5,3.4c0.3,0.6,1.1,0.1,0.9-0.5c-0.4-0.8-0.6-1.7-0.4-2.6
				C41.9,334.6,40.9,334.4,40.8,335L40.8,335z"/>
		</g>
	</g>
	<rect x="39.7" y="332.7" class="st6" width="59" height="2.2"/>
	<polygon class="st6" points="170.2,334.9 114.7,334.8 114.7,332.7 170.2,332.7 	"/>
</g>
</svg>
