<svg id="Layer_1" data-name="Layer 1" xmlns="http://www.w3.org/2000/svg" viewBox="0 0 220.02 149"><defs><style>.cls-1{fill:#fff;stroke:#e81e25;}.cls-1,.cls-2{stroke-miterlimit:10;}.cls-2{fill:none;stroke:#59461b;stroke-width:2px;}.cls-3{fill:#3c7639;}.cls-4{fill:#cb2026;}</style></defs><title>longsleeve</title><path class="cls-1" d="M389.78,439.6s-2-84-4.26-99.33-8.4-28-16.4-36-34.33-12.67-34.33-12.67H311.54s-5.7,39.33-31.27,41c-25.57-1.63-31.27-41-31.27-41H225.78s-26.33,4.67-34.33,12.67-14.14,20.67-16.4,36-4.26,99.33-4.26,99.33H210s-.83-70.25,2.57-74,7.4,3.52,7.4,3.52l-.38,5.07-4.86,65.41h131l-4.86-65.41-.38-5.07s4-7.28,7.4-3.52,2.57,74,2.57,74Z" transform="translate(-170.27 -291.1)"/><path class="cls-2" d="M273.86,383.47s9.06-2,13.13-6a7,7,0,0,0,1.72-2c2.85-4.92,8.54-16.3,8.54-16.3s-9.8,21.7-10.12,22.76c-1.58,5.23-.79,12.12-.79,12.12" transform="translate(-170.27 -291.1)"/><path class="cls-3" d="M294.72,366.46s3.79-4.1,6.85-4.41,14.23,0,14.23,0-2.74,9-7.59,9.84S294.72,366.46,294.72,366.46Z" transform="translate(-170.27 -291.1)"/><ellipse class="cls-4" cx="99.1" cy="98.47" rx="10.91" ry="10.61"/><ellipse class="cls-4" cx="116.07" cy="108.49" rx="10.91" ry="10.61"/></svg>