<svg id="Layer_1" data-name="Layer 1" xmlns="http://www.w3.org/2000/svg" viewBox="0 0 131.07 149"><defs><style>.cls-1{fill:#fff;stroke:#e81e25;}.cls-1,.cls-2{stroke-miterlimit:10;}.cls-2{fill:none;stroke:#59461b;stroke-width:2px;}.cls-3{fill:#3c7639;}.cls-4{fill:#cb2026;}</style></defs><title>tanktop</title><path class="cls-1" d="M11.54.5l-11,148h130L120.28.5h-23s-5.77,51-31.77,52S33.83.5,33.83.5Z" transform="translate(0)"/><path class="cls-2" d="M59.12,92.37s9.06-2,13.13-6a7,7,0,0,0,1.72-2c2.85-4.92,8.54-16.3,8.54-16.3s-9.8,21.7-10.12,22.76C70.81,96.06,71.6,103,71.6,103" transform="translate(0)"/><path class="cls-3" d="M79.93,75.36s3.79-4.1,6.85-4.41,14.23,0,14.23,0-2.74,9-7.59,9.84S79.93,75.36,79.93,75.36Z" transform="translate(0)"/><ellipse class="cls-4" cx="54.63" cy="98.47" rx="10.91" ry="10.61"/><ellipse class="cls-4" cx="71.6" cy="108.49" rx="10.91" ry="10.61"/></svg>