<svg id="Layer_1" data-name="Layer 1" xmlns="http://www.w3.org/2000/svg" viewBox="0 0 218.99 153"><defs><style>.cls-1{fill:#fff;}.cls-2{fill:none;stroke:#59461b;stroke-miterlimit:10;stroke-width:2px;}.cls-3{fill:#3c7639;}.cls-4{fill:#cb2026;}</style></defs><title>tshirt</title><path class="cls-1" d="M219.51,90.5s-2-26-4.26-41.33-8.4-28-16.4-36S164.52.5,164.52.5H141.27s-5.7,39.33-31.27,41C84.43,39.87,78.73.5,78.73.5H55.51S29.18,5.17,21.18,13.17,7,33.84,4.78,49.17.52,90.5.52,90.5H39.73s-.83-12.25,2.57-16S49.7,78,49.7,78l-.38,5.07L44.46,153.5h131L170.6,83.09,170.22,78s4-7.28,7.4-3.52,2.57,16,2.57,16Z" transform="translate(-0.52 -0.5)"/><path class="cls-2" d="M103.59,92.37s9.06-2,13.13-6a7,7,0,0,0,1.72-2c2.85-4.92,8.54-16.3,8.54-16.3s-9.8,21.7-10.12,22.76c-1.58,5.23-.79,12.12-.79,12.12" transform="translate(-0.52 -0.5)"/><path class="cls-3" d="M124.45,75.36s3.79-4.1,6.85-4.41,14.23,0,14.23,0-2.74,9-7.59,9.84S124.45,75.36,124.45,75.36Z" transform="translate(-0.52 -0.5)"/><ellipse class="cls-4" cx="98.58" cy="97.97" rx="10.91" ry="10.61"/><ellipse class="cls-4" cx="115.55" cy="107.99" rx="10.91" ry="10.61"/></svg>