<?xml version="1.0" encoding="utf-8"?>
<!-- Generator: Adobe Illustrator 20.1.0, SVG Export Plug-In . SVG Version: 6.00 Build 0)  -->
<svg version="1.1" id="Layer_1" xmlns="http://www.w3.org/2000/svg" xmlns:xlink="http://www.w3.org/1999/xlink" x="0px" y="0px"
	 viewBox="0 0 492.4 162.3" style="enable-background:new 0 0 492.4 162.3;" xml:space="preserve">
<style type="text/css">
	.st0{fill:#FFFFFF;}
	.st1{fill:#231C5B;}
	.st2{fill:url(#SVGID_1_);}
	.st3{fill:url(#SVGID_2_);}
	.st4{fill:#AFAFAF;}
</style>
<g>
	<path class="st0" d="M492.4,10.3c-2-0.4-3.2-0.8-4.5-1c-31.5-5.1-63.1-8.4-95-8.1c-19.9,0.2-40.2,0.1-59.8,3.3
		c-22.1,3.6-43.7,10.3-65.3,16.4c-16.2,4.5-32,4.9-48.1-0.4c-13.6-4.5-27.3-8.9-41.2-12C120.1-4.6,61.7-1.1,3.3,9.3
		c-2.8,0.5-3.5,1.8-3.2,4.4C0.8,21,1.3,28.3,2.1,35.6c0.1,1.2,1.2,2.9,2.2,3.4c9.2,4.1,13.4,11.5,14.8,21
		c1.6,11.2,3.1,22.4,4.9,33.6c5.7,36.6,29.1,60.8,65.6,66.9c23.4,3.9,46.5,1.2,69-6.2c20.6-6.8,36.9-19.4,47.2-38.6
		c6.2-11.5,11-23.8,16.2-35.9c3.2-7.5,5.7-15.3,9.1-22.7c1.3-2.7,4.3-5.6,7-6.3c12.6-3.3,21,0.9,26,13.1c4,9.7,7,19.7,10.9,29.5
		c10.6,27.1,26.5,49.2,55.5,59.1c19,6.5,38.4,9.6,58.4,9.5c13.1,0,25.8-2.7,37.8-8.2c22.6-10.4,33.8-29.4,39.1-52.5
		c3.3-14.6,5.3-29.5,8.2-44.2c1.5-7.6,4.9-14.2,12.8-17.2c0.9-0.3,1.9-1.5,2-2.4C490.2,28.6,491.2,19.7,492.4,10.3z"/>
	<path class="st1" d="M492.4,10.3c-1.2,9.5-2.2,18.4-3.5,27.2c-0.1,0.9-1.1,2.1-2,2.4c-8,3-11.3,9.6-12.8,17.2
		c-2.9,14.7-4.9,29.6-8.2,44.2c-5.3,23-16.5,42.1-39.1,52.5c-12,5.5-24.7,8.2-37.8,8.2c-19.9,0.1-39.4-3-58.4-9.5
		c-29-9.9-44.9-32-55.5-59.1c-3.8-9.8-6.8-19.8-10.9-29.5c-5.1-12.2-13.5-16.4-26-13.1c-2.8,0.7-5.8,3.7-7,6.3
		c-3.5,7.3-5.9,15.2-9.1,22.7c-5.2,12.1-10,24.3-16.2,35.9c-10.3,19.2-26.6,31.7-47.2,38.6c-22.5,7.5-45.5,10.1-69,6.2
		c-36.5-6.1-59.9-30.3-65.6-66.9c-1.7-11.2-3.2-22.4-4.9-33.6c-1.4-9.5-5.6-16.9-14.8-21c-1.1-0.5-2.1-2.1-2.2-3.4
		C1.3,28.3,0.8,21,0.1,13.7c-0.3-2.6,0.5-3.9,3.2-4.4C61.7-1.1,120.1-4.6,178.5,8.4c13.9,3.1,15.2,5.1,40.5,5.6c20,0,39,0,58.3-2.4
		c24.6-3,33.7-3.6,55.8-7.2c19.6-3.2,39.8-3.1,59.8-3.3c31.9-0.3,63.5,3,95,8.1C489.2,9.5,490.5,9.8,492.4,10.3z M114.5,27.4
		c-26,0.7-19.1,19.2-33.9,22C60.5,53.3,63.7,40.8,63,61.3c-0.5,16.2-3.9,16.9,2,32c8.7,22.1,3.7,18.1,27,23.5
		c8.8,2.1-9.1,9.8-0.1,9.5c19.5-0.5,40.9,23.1,57.1,11.9c8-5.5,14-12.8,18.7-21.2c8.3-14.9,12.3-31,15-47.8
		c3.2-20-11.2-21.7-28.7-26.5C134.1,37.4,161.1,31.3,114.5,27.4z M395,31.3c6.2,5.4-13.5,3.2-13.5,3.5c-18.4,0.2-2.7-4.8-11.7-3.5
		c-13,1.8-12.2,5.1-24.8,8.5c-13.6,3.6-30.1,5.6-28,23.7c1.6,13.7-15.1,16.4-10,29.1c8.7,21.9,24.3,36.1,46.4,43.6
		c13.7,4.6-6.2-1.6,8.3-2.3c23.5-1.2,43-10.4,56.2-30.3c12.4-18.5,16.1-39.6,15.6-61.4c-0.8,19.6-0.3,4.4-21.2,0.3
		C398.2,39.7,409.4,33,395,31.3z M456.1,22.6c4.1,5.3,18.9,6.5,24.9,2C476.4,19.3,461.4,18,456.1,22.6z M11,24.8
		c6.6,4.5,21.4,2.8,25-2.6C30,18.2,16.3,19.4,11,24.8z"/>
	<linearGradient id="SVGID_1_" gradientUnits="userSpaceOnUse" x1="120.4201" y1="151.9051" x2="120.4201" y2="13.1403">
		<stop  offset="0" style="stop-color:#FAEF5D"/>
		<stop  offset="0.1164" style="stop-color:#C7B145"/>
		<stop  offset="0.251" style="stop-color:#9F8231"/>
		<stop  offset="0.3898" style="stop-color:#826122"/>
		<stop  offset="0.5316" style="stop-color:#6E4B17"/>
		<stop  offset="0.6775" style="stop-color:#613C0F"/>
		<stop  offset="0.83" style="stop-color:#59340A"/>
		<stop  offset="1" style="stop-color:#573208"/>
	</linearGradient>
	<path class="st2" d="M114.2,13.1c20.6,1.6,41,2.9,61,8.3c17.5,4.7,33.4,24.3,30.2,44.3c-2.7,16.8-6.7,32.9-15,47.8
		c-4.7,8.4-10.7,15.7-18.7,21.2c-16.2,11.2-34.4,16.7-53.9,17.2c-9,0.2-18.4-0.5-27.2-2.6c-23.3-5.4-38.8-20.3-47.5-42.4
		c-5.9-15.1-8.5-30.8-8-46.9c0.7-20.5,13.9-37.5,34-41.4C84,15.7,89,13.1,114.2,13.1z"/>
	<linearGradient id="SVGID_2_" gradientUnits="userSpaceOnUse" x1="371.8649" y1="152.1606" x2="371.8649" y2="14.0171">
		<stop  offset="0" style="stop-color:#FAEF5D"/>
		<stop  offset="0.1164" style="stop-color:#C7B145"/>
		<stop  offset="0.251" style="stop-color:#9F8231"/>
		<stop  offset="0.3898" style="stop-color:#826122"/>
		<stop  offset="0.5316" style="stop-color:#6E4B17"/>
		<stop  offset="0.6775" style="stop-color:#613C0F"/>
		<stop  offset="0.83" style="stop-color:#59340A"/>
		<stop  offset="1" style="stop-color:#573208"/>
	</linearGradient>
	<path class="st3" d="M390.8,14.4c28.9,2.5,17.5,1.3,31.7,4c21,4.1,34.1,20.6,34.6,41.9c0.5,21.9-3.2,42.9-15.6,61.4
		c-13.3,19.8-32.7,29.1-56.2,30.3c-14.5,0.7-28.5-1.4-42.3-6c-22.1-7.5-37.8-21.7-46.4-43.6c-5.1-12.8-8.1-25.9-9.7-39.6
		c-2.1-18,12.9-36.3,26.5-39.9c12.6-3.4,25.6-5.6,38.6-7.4c9-1.3,18.3-1.1,27.4-1.5C379.4,13.8,390.8,14.7,390.8,14.4z"/>
	<path class="st4" d="M456.1,22.6c5.4-4.6,20.3-3.4,24.9,2C475,29.1,460.1,27.9,456.1,22.6z"/>
	<path class="st4" d="M11,24.8c5.3-5.4,18.9-6.6,25-2.6C32.5,27.6,17.6,29.3,11,24.8z"/>
</g>
</svg>
